<?xml version="1.0" encoding="UTF-8"?><svg id="Layer_1" xmlns="http://www.w3.org/2000/svg" xmlns:xlink="http://www.w3.org/1999/xlink" viewBox="0 0 16 16"><defs><style>.cls-1{clip-path:url(#clippath);}.cls-2{fill:none;}.cls-2,.cls-3,.cls-4,.cls-5,.cls-6,.cls-7,.cls-8,.cls-9,.cls-10,.cls-11{stroke-width:0px;}.cls-3{fill:#4caf50;}.cls-4{fill:#2196f3;}.cls-5{fill:#c62828;}.cls-6{fill:#cfd8dc;}.cls-7{fill:#d7e9ff;}.cls-8{fill:#f44336;}.cls-9{fill:#fff;}.cls-10{fill:#ffc107;}.cls-11{fill:#fafafa;}</style><clipPath id="clippath"><rect class="cls-2" width="16" height="16"/></clipPath></defs><rect class="cls-7" width="16" height="16"/><g class="cls-1"><path class="cls-6" d="m14.38,6.18v7.61c0,.3-.09.59-.26.84-.05.09-.12.17-.19.24l-6.04-6.04-.21-.21,4.16-4.16.26.16,2.13,1.3c.09.06.15.16.15.26Z"/><path class="cls-3" d="m11.85,4.45l-4.37,4.37L1.44,14.86c-.07-.07-.13-.15-.19-.24-.17-.25-.26-.54-.26-.84V4.04c0-.84.68-1.52,1.52-1.52h6.09c.06,0,.11.02.16.04l2.82,1.72.26.16Z"/><path class="cls-9" d="m3.72,6.97l-.12.44h-.43c-.13-.23-.2-.5-.2-.79s.07-.54.19-.77h0l.38.07.17.38c-.03.1-.05.21-.05.32,0,.12.02.24.06.35Z"/><path class="cls-9" d="m6.3,6.31c.02.1.03.21.03.31,0,.12-.01.24-.04.35-.08.38-.29.72-.59.95h0s-.48-.02-.48-.02l-.07-.42c.2-.11.35-.29.43-.51h-.89v-.66h1.61Z"/><path class="cls-9" d="m5.71,7.93h0c-.29.23-.65.37-1.05.37-.64,0-1.19-.36-1.48-.88l.54-.44c.14.38.51.65.93.65.18,0,.36-.05.5-.14l.55.45Z"/><path class="cls-9" d="m5.73,5.33l-.54.44c-.15-.1-.33-.15-.53-.15-.44,0-.81.28-.94.67l-.55-.45h0c.28-.54.84-.91,1.49-.91.41,0,.78.14,1.07.39Z"/><path class="cls-4" d="m13.95,14.86c-.07.07-.15.13-.24.19-.25.17-.54.26-.84.26H2.52c-.3,0-.59-.09-.84-.26-.09-.05-.17-.12-.24-.19l6.04-6.04.21-.21.21.21,6.04,6.04Z"/><path class="cls-11" d="m14.14,14.62c-.11.17-.25.32-.43.43l-6.23-6.23c-.12-.12-.11-.31,0-.43.12-.11.3-.11.42,0l6.23,6.23Z"/><path class="cls-10" d="m12.11,4.62l-4.21,4.21L1.68,15.05c-.17-.11-.32-.25-.43-.43L11.59,4.29l.52.33Z"/><path class="cls-8" d="m11.65.7c-1.85,0-3.35,1.5-3.35,3.35,0,.18.02.37.05.55.07.47.25.92.52,1.32.14.24.3.5.48.77.99,1.42,1.67,3.03,2,4.73.03.16.19.27.36.24.12-.02.21-.12.24-.24.33-1.7,1.01-3.31,2-4.73.17-.27.34-.52.46-.75.27-.4.45-.86.53-1.33.04-.18.05-.37.06-.55,0-1.85-1.5-3.35-3.35-3.35Z"/><circle class="cls-5" cx="11.65" cy="4.04" r="1.52"/></g></svg>