<?xml version="1.0" encoding="iso-8859-1"?>
<!-- Generator: Adobe Illustrator 19.0.0, SVG Export Plug-In . SVG Version: 6.00 Build 0)  -->
<svg version="1.1" id="Capa_1" xmlns="http://www.w3.org/2000/svg" xmlns:xlink="http://www.w3.org/1999/xlink" x="0px" y="0px"
	 viewBox="0 0 512 512" style="enable-background:new 0 0 512 512;" xml:space="preserve">
<polygon style="fill:#FFC66C;" points="283.994,294.052 283.994,113.973 316.03,113.973 256,9.998 195.971,113.973 228.007,113.973 
	228.007,294.052 "/>
<g>
	<polygon style="fill:#72D8FF;" points="283.994,223.947 417.962,223.947 417.962,255.983 501.942,195.953 417.962,135.924 
		417.962,167.96 283.994,167.96 	"/>
	<polygon style="fill:#72D8FF;" points="228.007,167.96 94.039,167.96 94.039,135.924 10.059,195.953 94.039,255.983 
		94.039,223.947 228.007,223.947 	"/>
</g>
<circle style="fill:#ADE5FF;" cx="255.999" cy="398.025" r="103.975"/>
<path style="fill:#2E9DE3;" d="M313.702,440.782L256,422.495l-57.701,18.287L256,338.842L313.702,440.782z"/>
<path d="M190.598,446.964c2.589,3.193,6.864,4.472,10.786,3.234L256,432.889l54.616,17.309c0.995,0.314,2.013,0.468,3.02,0.468
	c2.961,0,5.835-1.32,7.767-3.702c2.588-3.192,2.959-7.644,0.935-11.221l-57.636-101.827c-1.774-3.135-5.098-5.073-8.7-5.073
	s-6.926,1.938-8.7,5.073l-57.636,101.827C187.639,439.32,188.01,443.771,190.598,446.964z M256,359.137l36.403,64.314l-26.406-8.369
	v-10.987c0-5.521-4.477-9.998-9.998-9.998s-9.998,4.477-9.998,9.998v10.987l-26.406,8.369L256,359.137z"/>
<path d="M317.656,167.96c0,2.629,1.06,5.209,2.929,7.067c1.86,1.86,4.43,2.93,7.068,2.93c2.629,0,5.209-1.07,7.068-2.93
	c1.859-1.859,2.929-4.438,2.929-7.067s-1.07-5.209-2.929-7.068c-1.87-1.86-4.439-2.929-7.068-2.929
	c-2.629,0-5.209,1.069-7.068,2.929C318.716,162.751,317.656,165.331,317.656,167.96z"/>
<path d="M507.755,187.819l-83.98-60.031c-3.048-2.176-7.056-2.469-10.388-0.757c-3.331,1.714-5.425,5.145-5.425,8.891v22.04H365.64
	c-5.521,0-9.998,4.477-9.998,9.998s4.477,9.998,9.998,9.998h52.321c5.521,0,9.998-4.477,9.998-9.998v-12.601l56.791,40.594
	l-56.79,40.594v-12.601c0-5.521-4.477-9.998-9.998-9.998h-123.97V123.97h22.04c3.571,0,6.872-1.906,8.658-4.999s1.786-6.904,0-9.998
	L264.658,4.999C262.873,1.906,259.572,0,256,0s-6.872,1.906-8.658,4.999l-60.031,103.975c-1.786,3.093-1.786,6.904,0,9.998
	c1.786,3.093,5.087,4.999,8.658,4.999h22.04v33.992H104.037v-22.039c0-3.745-2.093-7.177-5.425-8.891
	c-3.33-1.713-7.341-1.422-10.388,0.757l-83.98,60.03c-2.625,1.878-4.184,4.906-4.184,8.134c0,3.228,1.559,6.257,4.184,8.134
	l83.98,60.031c1.729,1.235,3.767,1.864,5.815,1.864c1.563,0,3.131-0.366,4.572-1.107c3.331-1.714,5.425-5.145,5.425-8.891v-22.04
	h30.326c5.521,0,9.998-4.477,9.998-9.998c0-5.521-4.477-9.998-9.998-9.998H94.039c-5.521,0-9.998,4.477-9.998,9.998v12.601
	l-56.79-40.594l56.79-40.594v12.601c0,5.521,4.477,9.998,9.998,9.998h123.97v112.616c-44.221,15.681-75.982,57.925-75.982,107.453
	C142.028,460.871,193.156,512,256,512s113.973-51.129,113.973-113.973S318.845,284.054,256,284.054
	c-6.123,0-12.132,0.492-17.996,1.426V113.973c0-5.521-4.477-9.998-9.998-9.998h-14.721L256,29.993l42.715,73.982h-14.721
	c-5.521,0-9.998,4.477-9.998,9.998v141.966c0,5.521,4.477,9.998,9.998,9.998s9.998-4.477,9.998-9.998v-21.995h113.973v22.039
	c0,3.745,2.094,7.177,5.425,8.891c1.441,0.741,3.009,1.107,4.572,1.107c2.049,0,4.087-0.629,5.815-1.864l83.98-60.03
	c2.625-1.878,4.184-4.906,4.184-8.134C511.94,192.725,510.381,189.697,507.755,187.819z M349.978,398.027
	c0,51.82-42.158,93.978-93.978,93.978s-93.978-42.158-93.978-93.978S204.181,304.05,256,304.05S349.978,346.208,349.978,398.027z"/>
<path d="M182.758,231.014c1.859-1.859,2.929-4.438,2.929-7.067s-1.07-5.209-2.929-7.068c-1.86-1.86-4.439-2.929-7.068-2.929
	s-5.209,1.069-7.068,2.929c-1.87,1.86-2.929,4.439-2.929,7.068s1.06,5.209,2.929,7.067c1.86,1.86,4.43,2.93,7.068,2.93
	C178.319,233.944,180.898,232.874,182.758,231.014z"/>
<g>
</g>
<g>
</g>
<g>
</g>
<g>
</g>
<g>
</g>
<g>
</g>
<g>
</g>
<g>
</g>
<g>
</g>
<g>
</g>
<g>
</g>
<g>
</g>
<g>
</g>
<g>
</g>
<g>
</g>
</svg>
