<svg height="512pt" viewBox="-79 0 512 512" width="512pt" xmlns="http://www.w3.org/2000/svg"><path d="m353.101562 176.550781c0 176.550781-150.066406 335.449219-176.550781 335.449219-26.480469 0-176.550781-158.898438-176.550781-335.449219 0-97.507812 79.042969-176.550781 176.550781-176.550781 97.507813 0 176.550781 79.042969 176.550781 176.550781zm0 0" fill="#e64c3c"/><path d="m317.792969 185.378906c-.039063 55.988282-33.125 106.675782-84.363281 129.246094-51.234376 22.574219-110.96875 12.769531-152.304688-24.992188-11.226562-10.34375-20.734375-22.414062-28.160156-35.75-33.574219-60.617187-18.234375-136.636718 36.21875-179.488281 54.453125-42.851562 131.949218-39.890625 182.972656 6.996094 3 2.734375 5.824219 5.5625 8.648438 8.5625 23.839843 26.058594 37.039062 60.109375 36.988281 95.425781zm0 0" fill="#fff"/><path d="m125.0625 371.289062c-.671875-1.269531-.496094-2.820312.445312-3.90625.945313-1.082031 2.457032-1.472656 3.804688-.980468 30.578125 10.726562 63.898438 10.726562 94.476562 0 1.351563-.492188 2.863282-.101563 3.804688.980468.941406 1.085938 1.121094 2.636719.449219 3.90625-9.742188 18.570313-34.03125 61.261719-51.492188 61.261719-17.457031 0-41.746093-42.691406-51.488281-61.261719zm0 0" fill="#c03a2b"/><path d="m132.414062 247.171875c-4.875 0-8.828124-3.953125-8.828124-8.828125v-17.652344c.039062-8.308594 3.9375-16.128906 10.550781-21.15625l6.898437-5.21875c3.890625-2.945312 9.429688-2.175781 12.371094 1.714844s2.171875 9.425781-1.714844 12.371094l-6.886718 5.207031c-2.222657 1.679687-3.539063 4.296875-3.5625 7.082031v17.652344c0 4.875-3.953126 8.828125-8.828126 8.828125zm0 0" fill="#f29c1f"/><path d="m220.691406 247.171875c-4.878906 0-8.828125-3.953125-8.828125-8.828125v-17.652344c-.027343-2.792968-1.34375-5.414062-3.570312-7.097656l-6.878907-5.191406c-2.515624-1.90625-3.828124-5.007813-3.4375-8.136719.390626-3.132813 2.421876-5.816406 5.328126-7.042969 2.90625-1.226562 6.246093-.8125 8.765624 1.09375l6.882813 5.207032c6.621094 5.03125 10.523437 12.851562 10.5625 21.167968v17.652344c0 2.34375-.929687 4.585938-2.582031 6.242188-1.65625 1.65625-3.902344 2.585937-6.242188 2.585937zm0 0" fill="#f29c1f"/><path d="m176.550781 256c-4.875 0-8.828125-3.953125-8.828125-8.828125v-52.964844c0-4.875 3.953125-8.828125 8.828125-8.828125s8.828125 3.953125 8.828125 8.828125v52.964844c0 4.875-3.953125 8.828125-8.828125 8.828125zm0 0" fill="#95a5a5"/><path d="m194.207031 256c0 9.75-7.90625 17.65625-17.65625 17.65625s-17.652343-7.90625-17.652343-17.65625 7.902343-17.65625 17.652343-17.65625 17.65625 7.90625 17.65625 17.65625zm0 0" fill="#556080"/><path d="m247.171875 187.761719v6.445312c0 17.65625-70.621094 17.65625-70.621094 17.65625s-70.621093 0-70.621093-17.65625v-6.445312c12.445312 4.957031 26.664062 1.402343 35.3125-8.828125 6.066406-6.628906 14.503906-10.59375 23.480468-11.03125 7.855469-.179688 15.800782-.179688 23.65625 0 8.976563.4375 17.417969 4.402344 23.484375 11.03125 8.644531 10.230468 22.867188 13.785156 35.308594 8.828125zm0 0" fill="#bdc3c7"/><path d="m105.929688 196.589844c-4.875 0-8.828126-3.953125-8.828126-8.828125v-55.347657c0-4.875 3.953126-8.828124 8.828126-8.828124s8.828124 3.953124 8.828124 8.828124v55.347657c0 4.875-3.953124 8.828125-8.828124 8.828125zm0 0" fill="#95a5a5"/><path d="m247.171875 196.589844c-4.875 0-8.828125-3.953125-8.828125-8.828125v-52.964844c0-4.875 3.953125-8.828125 8.828125-8.828125s8.828125 3.953125 8.828125 8.828125v52.964844c0 4.875-3.953125 8.828125-8.828125 8.828125zm0 0" fill="#95a5a5"/><g fill="#35495e"><path d="m141.242188 158.898438h-70.621094c-4.875 0-8.828125-3.953126-8.828125-8.828126s3.953125-8.828124 8.828125-8.828124h70.621094c4.875 0 8.828124 3.953124 8.828124 8.828124s-3.953124 8.828126-8.828124 8.828126zm0 0"/><path d="m282.484375 158.898438h-70.621094c-4.875 0-8.828125-3.953126-8.828125-8.828126s3.953125-8.828124 8.828125-8.828124h70.621094c4.875 0 8.824219 3.953124 8.824219 8.828124s-3.949219 8.828126-8.824219 8.828126zm0 0"/></g></svg>