<svg height="512pt" viewBox="0 0 512 512" width="512pt" xmlns="http://www.w3.org/2000/svg" xmlns:xlink="http://www.w3.org/1999/xlink"><linearGradient id="a" gradientUnits="userSpaceOnUse" x1="0" x2="512" y1="256" y2="256"><stop offset="0" stop-color="#00f38d"/><stop offset="1" stop-color="#009eff"/></linearGradient><path d="m512 256c0 141.386719-114.613281 256-256 256s-256-114.613281-256-256 114.613281-256 256-256 256 114.613281 256 256zm0 0" fill="url(#a)"/><g fill="#fff"><path d="m136.503906 226.976562v-3.53125c0-56.703124 46.132813-102.835937 102.835938-102.835937s102.835937 46.132813 102.835937 102.835937v3.53125c0 7.011719-1.058593 14.199219-2.957031 21.453126 8.421875 1 16.511719 3.089843 24.125 6.132812 2.503906-9.546875 3.761719-18.746094 3.761719-27.582031v-3.535157c0-70.449218-57.316407-127.765624-127.765625-127.765624-70.453125 0-127.769532 57.9375-127.769532 128.390624v3.53125c0 35.632813 20.429688 76.527344 60.71875 122.785157 29.203126 33.53125 58.003907 56.914062 59.214844 57.890625l7.835938 6.332031 7.832031-6.332031c.429687-.34375 4.726563-4.277344 10.863281-9.695313-6.855468-6.230469-11.839844-10.59375-18.695312-16.371093-25.261719-22.136719-102.835938-95.023438-102.835938-155.234376zm0 0"/><path d="m178.59375 223.445312c0 33.496094 27.25 60.746094 60.746094 60.746094s60.746094-27.25 60.746094-60.746094c0-33.492187-27.25-60.742187-60.746094-60.742187s-60.746094 27.25-60.746094 60.742187zm93.492188 0c0 18.058594-14.691407 32.746094-32.746094 32.746094-18.054688 0-32.746094-14.691406-32.746094-32.746094 0-18.054687 14.691406-32.742187 32.746094-32.742187 18.054687 0 32.746094 14.6875 32.746094 32.742187zm0 0"/><path d="m400.429688 358.359375v-28h-23.144532c-1.105468-3.890625-2.652344-7.597656-4.589844-11.054687l16.082032-16.082032-19.800782-19.796875-16.082031 16.082031c-3.457031-1.941406-7.160156-3.488281-11.050781-4.589843v-22.523438h-28v22.523438c-3.890625 1.101562-7.597656 2.648437-11.054688 4.589843l-16.082031-16.082031-19.800781 19.796875 16.082031 16.082032c-1.9375 3.460937-3.484375 7.164062-4.589843 11.054687h-23.140626v28h23.140626c1.105468 3.890625 2.652343 7.59375 4.589843 11.054687l-16.082031 16.082032 19.800781 19.796875 16.082031-16.082031c3.457032 1.941406 7.164063 3.488281 11.054688 4.589843v22.519531h28v-22.519531c3.890625-1.105469 7.59375-2.652343 11.050781-4.589843l16.082031 16.082031 19.800782-19.796875-16.082032-16.085938c1.941407-3.457031 3.484376-7.160156 4.589844-11.050781zm-85.96875-33.175781c3.796874-2.65625 8.40625-4.21875 13.382812-4.21875 12.898438 0 23.394531 10.492187 23.394531 23.394531 0 12.898437-10.496093 23.394531-23.394531 23.394531-12.902344 0-23.398438-10.496094-23.398438-23.394531 0-4.972656 1.5625-9.585937 4.21875-13.382813zm0 0"/></g></svg>