<svg height="496pt" viewBox="0 0 496 496" width="496pt" xmlns="http://www.w3.org/2000/svg" xmlns:xlink="http://www.w3.org/1999/xlink"><linearGradient id="a" gradientUnits="userSpaceOnUse" x1="248" x2="248" y1="496" y2="0"><stop offset="0" stop-color="#9f2fff"/><stop offset="1" stop-color="#0bb1d3"/></linearGradient><path d="m464 288h-128v-16h128zm0 16h-128v16h128zm-128-168c0 48.519531-39.480469 88-88 88s-88-39.480469-88-88 39.480469-88 88-88 88 39.480469 88 88zm-16 0c0-39.695312-32.304688-72-72-72s-72 32.304688-72 72 32.304688 72 72 72 72-32.304688 72-72zm-80 136h16v-16h-16zm32 0h16v-16h-16zm-64 0h16v-16h-16zm272-184h16v-16h-16zm-80 0h64v-16h-64zm-1.703125-48h97.703125v16h-94.296875l-34.128906 15.265625c10.472656 19.261719 16.425781 41.320313 16.425781 64.734375v1.953125c0 26.445313-7.640625 52.136719-22.089844 74.292969l-18.101562 27.753906h152.191406v256h-496v-256h152.191406l-18.101562-27.761719c-6.144532-9.421875-10.976563-19.503906-14.59375-29.992187l-21.792969 9.753906h-97.703125v-16h94.296875l20.78125-9.296875c-2.023437-9.390625-3.078125-19.023437-3.078125-28.75v-1.953125c0-74.992188 61.007812-136 136-136 45.792969 0 86.289062 22.816406 110.945312 57.609375zm-286.296875 248h71.496094l-20.871094-32h-50.625zm-96 0h32v-32h-32zm0 96h32v-32h-32zm96 64h-96v32h96zm272 0h-208v32h208zm96 0h-32v32h32zm0-96h-32v32h32zm-146.625-96-37.183594 57.023438c13.878906 5.695312 24.65625 13.65625 31.472656 22.976562h72.335938v64h-89.878906c-15.800782 9.9375-37.632813 16-62.121094 16s-46.3125-6.0625-62.121094-16h-89.878906v-64h72.335938c6.824218-9.328125 17.59375-17.289062 31.472656-22.976562l-5.878906-9.023438h-97.929688v-48h-32v48h-48v32h48v64h-48v32h112v48h32v-48h240v48h32v-48h48v-32h-48v-64h48v-80zm-66.304688 101.671875c-4.222656 6.472656-11.351562 10.328125-19.070312 10.328125s-14.847656-3.855469-19.070312-10.328125l-20.167969-30.929687c-20.035157 7.464843-32.761719 20.105468-32.761719 33.257812 0 21.679688 32.976562 40 72 40s72-18.320312 72-40c0-13.152344-12.726562-25.792969-32.761719-33.257812zm68.929688 2.328125c0 8.648438-3.023438 16.753906-8.304688 24h56.304688v-32h-48.871094c.566406 2.617188.871094 5.289062.871094 8zm-176 0c0-2.710938.304688-5.382812.871094-8h-48.871094v32h56.304688c-5.28125-7.246094-8.304688-15.351562-8.304688-24zm208-224c0-66.167969-53.832031-120-120-120s-120 53.832031-120 120v1.953125c0 23.335937 6.734375 46 19.488281 65.550781l94.839844 145.433594c2.503906 3.839844 8.832031 3.839844 11.34375 0l94.839844-145.433594c12.753906-19.550781 19.488281-42.214844 19.488281-65.550781zm-304 72h-64v16h64zm16 0v16h16v-16zm0 0" fill="url(#a)"/></svg>